<svg xmlns="http://www.w3.org/2000/svg" width="124" height="40" viewBox="0 0 124 40" fill="none"><path fill-rule="evenodd" clip-rule="evenodd" d="M20 40C31.0457 40 40 31.0457 40 20C40 8.95431 31.0457 0 20 0C8.95431 0 0 8.95431 0 20C0 31.0457 8.95431 40 20 40ZM19.7202 8.36374L10.3274 14.8912V29.3092H22.0884V18.8368H18.2429V25.7336H14.0913V16.9302L19.7202 13.0144L25.4825 16.9302V29.3092H29.6728V14.8912L19.7202 8.36374ZM62.362 27V24.624H56.18V11.6H53.65V27H62.362ZM68.6147 27.264C69.8687 27.264 71.2767 26.648 71.9147 25.614V27H74.2907V16.748H71.9147V18.134C71.2767 17.1 70.0447 16.484 68.6807 16.484C65.4907 16.484 63.5767 18.86 63.5767 21.874C63.5767 24.888 65.3147 27.264 68.6147 27.264ZM68.9667 25.13C67.0967 25.13 65.9747 23.744 65.9747 21.874C65.9747 20.004 67.0967 18.618 68.9667 18.618C71.0127 18.618 72.0027 20.114 72.0027 21.874C72.0027 23.634 71.0127 25.13 68.9667 25.13ZM80.5122 22.974C80.5122 24.756 81.0622 24.976 82.0082 24.976C82.3822 24.976 82.9762 24.932 83.2182 24.888V27C82.8442 27.066 82.1402 27.132 81.4362 27.132C80.2702 27.132 78.1142 26.978 78.1142 23.524V18.75H76.3762V16.748H78.1142V13.646H80.5122V16.748H82.8662V18.75H80.5122V22.974ZM89.6494 27.264C92.5094 27.264 94.2914 25.746 94.5114 23.458H92.1134C91.8494 24.536 91.1014 25.13 89.6494 25.13C87.9554 25.13 86.9434 23.964 86.9434 21.874C86.9434 19.784 87.9554 18.618 89.6494 18.618C91.1014 18.618 91.8494 19.234 92.1134 20.4H94.5114C94.2914 18.046 92.5094 16.484 89.6494 16.484C86.4594 16.484 84.5454 18.684 84.5454 21.874C84.5454 25.064 86.4594 27.264 89.6494 27.264ZM99.229 18.178C99.867 17.078 101.055 16.484 102.573 16.484C105.037 16.484 106.313 17.87 106.313 20.554V27H103.915V21.654C103.915 19.476 103.343 18.53 101.671 18.53C100.109 18.53 99.229 19.564 99.229 21.368V27H96.831V11.6H99.229V18.178ZM118.576 21.346C118.576 18.464 116.596 16.484 113.67 16.484C110.546 16.484 108.522 18.596 108.522 21.874C108.522 25.196 110.524 27.264 113.758 27.264C116.222 27.264 118.158 25.922 118.466 24.008H116.046C115.65 24.8 114.946 25.174 113.758 25.174C112.02 25.174 110.964 24.294 110.898 22.666H118.51C118.554 22.094 118.576 21.764 118.576 21.346ZM110.898 20.84C110.92 19.388 111.932 18.376 113.626 18.376C115.276 18.376 116.2 19.256 116.222 20.84H110.898ZM123.292 11.6V27H120.894V11.6H123.292Z" fill="#373737"/></svg>
